<svg id="Calque_1" data-name="Calque 1" xmlns="http://www.w3.org/2000/svg" viewBox="0 0 229.12 291.23"><defs><style>.cls-1,.cls-8{fill:#fff;}.cls-1{stroke:#1d1d1b;}.cls-1,.cls-6{stroke-width:0.5px;}.cls-2,.cls-9{fill:#000091;}.cls-3,.cls-7{fill:#e1000f;}.cls-4{fill:#9d9e9b;}.cls-5{fill:#6e6e6d;}.cls-6{fill:none;stroke:#181716;}.cls-7,.cls-8,.cls-9{fill-rule:evenodd;}</style></defs><rect class="cls-1" width="229.04" height="291.12"/><path class="cls-2" d="M31.33,262.94s.05,0,.06,0h-.13s0,0,0,0l-.27.07c-.11,0-.21.12-.35.15s-.33.22-.53.28c0,0,0,0,0,0s.08-.07.12-.12,0,0,0,0a2.91,2.91,0,0,1,.49-.44v-.05c.05-.06.13-.1.16-.18a.32.32,0,0,1,.17-.15s0,0,0-.05-.13,0-.2,0a.27.27,0,0,1,.1-.06l0,0s0-.07.08-.08.15,0,.2-.07c-.12,0-.25,0-.37,0a.93.93,0,0,1,.42-.51s.05,0,.05,0a.17.17,0,0,1-.13.17,1.47,1.47,0,0,1,.4.1s-.05,0-.07,0,.19,0,.27.09-.1,0-.15,0a4.31,4.31,0,0,1,1.51.6,4.71,4.71,0,0,1-1.16.35h-.13s0,0,0,0a.25.25,0,0,0-.17,0c-.06,0-.16.05-.21,0M31,264.1h0l-.19.12-.22.11h0a.76.76,0,0,0-.17.13l0,0h0l0,0h0l0,0,0,0s0,0,0,0h0l0,0h-.05l-.06.05-.1.11h0v0h0l0,0h0l.05-.06h0l0,0,0,0v0a.18.18,0,0,0,.05-.07h0a.05.05,0,0,0,0,0l0,0h0s0,0,0,0h0v0h0v0h0a.36.36,0,0,1,.07-.1h0s0,0-.06.05-.06,0,0,0l0,0h0a.3.3,0,0,1,.08-.08l.05,0h0s0,0,0,0h0c.16-.16.43-.15.64-.25s.18,0,.27,0a.27.27,0,0,1,.15,0c-.15.08-.29.18-.43.26m.3.14a.1.1,0,0,1,0,.05s0,0,0,0a.38.38,0,0,1-.12.09h0l-.06.06s-.11,0-.08,0l.12-.12a.46.46,0,0,0,.07-.07l0,0s.11,0,.09,0m-.77-2.51s0,0-.06.07a.13.13,0,0,1-.06.07s0,0,0,0a.21.21,0,0,1,.14-.15s0,0,0,0m-1.39,1.11a.07.07,0,0,1,0,0,4.28,4.28,0,0,0,.53-.85,2.6,2.6,0,0,0,.58-.47,3.27,3.27,0,0,1,.93-.74.67.67,0,0,1,.44,0c0,.07-.14.05-.2.1s0,0-.05,0a.07.07,0,0,0,0,0c-.17.19-.4.27-.53.49s-.17.39-.39.44,0-.05,0,0a5.48,5.48,0,0,0-1.29,1.16m2.56.37s-.1,0-.08,0,.13-.08.2-.12.08-.05.11,0,.09,0,.12.07-.23.05-.35.1m2.57,1.2.29-.3h0a4.31,4.31,0,0,1,.56-.57l.18-.15s0-.05,0-.07-.13.1-.22.14a0,0,0,0,1,0,0l.18-.13h0s0,0,0,0c-.22,0-.38.11-.54.25s-.06,0-.08,0c-.25.09-.44.3-.69.4v0c-.1,0-.2.09-.3.12a2,2,0,0,1-.42,0c-.2,0-.4.07-.61.11h0a1.75,1.75,0,0,0-.32.12h0l0,0a.58.58,0,0,1-.12.1,1.37,1.37,0,0,0-.27.22h0l-.27.25h-.05v0l0-.07a.22.22,0,0,0,.05-.08l.07-.1s0,0,0,0h0a1.46,1.46,0,0,1,.28-.21h0s0,0,0,0l0,0v0h0l-.07.05s-.08.11-.14.11h0v0h0v0l0,0v0l0,0s0,0,0,0a.35.35,0,0,1,.11-.1h0a1.18,1.18,0,0,1,.19-.11l0,0a1,1,0,0,0-.27.13h0a0,0,0,0,1,0,0v0s.06,0,.1-.08,0,0,0,0c.54-.42,1.27-.32,1.89-.54l.15-.1c.09,0,.15-.12.25-.17a.73.73,0,0,0,.29-.38.07.07,0,0,0,0,0,2.59,2.59,0,0,1-.73.56,3.29,3.29,0,0,1-1.11.2.08.08,0,0,1,.08,0c0-.06,0-.07.07-.11h0s0,0,0,0l.06,0c0-.06-.15.05-.23,0s0-.08,0-.1h.06s0-.06,0-.06l.72-.41s-.09.06-.14,0,0-.05,0-.05.33-.15.52-.22c-.07,0-.12.05-.19,0s0-.05.1-.05v-.05h0l0,0s.07,0,.1-.05,0,0,0,0a.35.35,0,0,1,.22-.1s-.07,0-.07,0,0,0,0,0h0s0-.05,0-.06a1.19,1.19,0,0,0,.15-.41h0a1.39,1.39,0,0,1-.68.32H33.4a.34.34,0,0,1-.28,0,2.09,2.09,0,0,1-.17-.14,2,2,0,0,0-.42-.2,3.73,3.73,0,0,0-1.29-.18,3.06,3.06,0,0,1,.59-.17,2.79,2.79,0,0,1,.85-.17.86.86,0,0,0-.16,0,3,3,0,0,0-.72.1l-.49.14c-.1,0-.15.13-.27.12v-.06a.94.94,0,0,1,.64-.41,3.33,3.33,0,0,1,.89,0,5,5,0,0,1,.63.12c.09,0,.1.13.17.15s.2,0,.3.07a.41.41,0,0,1,0-.11c.07-.06.15,0,.22,0s-.12-.24-.18-.35a.1.1,0,0,1,0,0,2.25,2.25,0,0,0,.41.34c.08,0,.28.08.25,0a2.6,2.6,0,0,0-.39-.5v-.07s0,0-.05,0v-.07c-.07,0,0-.1-.08-.15s0-.2,0-.3a1.53,1.53,0,0,1-.07-.29c-.05-.28-.12-.53-.15-.8s.18-.57.33-.86a1.4,1.4,0,0,1,.47-.53,1.58,1.58,0,0,1,.32-.54,1.47,1.47,0,0,1,.52-.33,3.15,3.15,0,0,1,.44-.17H24.18v8.86h8.14a7.68,7.68,0,0,1,1.08-.56,4.15,4.15,0,0,0,.85-.48"/><path class="cls-3" d="M48.55,256.59H39l.09,0,.24.13a.75.75,0,0,1,.32.27c0,.05.08.15,0,.21s0,.22-.14.25a.52.52,0,0,1-.35,0,.79.79,0,0,1-.2,0,1.37,1.37,0,0,1,.66.46s.08.05.15.05,0,0,0,.05-.06.05-.05.1h.05c.09,0,.07-.2.19-.15a.2.2,0,0,1,.07.25,1.57,1.57,0,0,1-.21.17.21.21,0,0,0,0,.11.64.64,0,0,1,.09.21c0,.11.06.24.12.36a2.45,2.45,0,0,1,.11.76c0,.13-.07.25,0,.38a1.06,1.06,0,0,0,.18.35,2.11,2.11,0,0,1,.18.27c.1.17.29.34.2.54s-.23.1-.35.17,0,.21,0,.3-.1.25-.22.3.1,0,.12.06.1.14,0,.22-.27.15-.17.3a.44.44,0,0,1,0,.37.41.41,0,0,1-.3.26.69.69,0,0,1-.32,0,.29.29,0,0,0-.1,0,6.21,6.21,0,0,0-.85-.12l-.24.07a1.12,1.12,0,0,0-.2.18h0l0,0,0,0h0a1.43,1.43,0,0,0-.14.2h0l0,0a2,2,0,0,0-.12.31,1,1,0,0,0,0,.79s.56.19.93.35l.39.2h9.36Z"/><path class="cls-4" d="M39.59,259.82c.06,0,.16,0,.16.05s-.23.17-.33.3h-.05s0,.12-.09.12a.2.2,0,0,0-.15,0,.33.33,0,0,0,.25.1.07.07,0,0,1,0,.07.06.06,0,0,0,0,0s0,0,0,0v.06c0,.07-.13,0-.2,0a.86.86,0,0,0,.39,0c.1,0,0-.2.06-.28s0-.05,0-.05.07-.09.1-.1a.14.14,0,0,0,.1-.05s-.07-.05-.05-.09.19-.16.15-.26-.15-.06-.23-.09a.58.58,0,0,0-.29,0,1.17,1.17,0,0,0-.25.07,1.2,1.2,0,0,0-.32.16c.12-.05.24-.06.37-.1a1.41,1.41,0,0,1,.29,0"/><path d="M199.27,265.58h5.16v-1.5h-3.36v-2.27h2.85v-1.49h-2.85v-2.1h3.36v-1.49h-5.16Zm-8.1-1.23a4,4,0,0,0,3.27,1.48,2.72,2.72,0,0,0,2.95-2.67c0-3-4-2.58-4-4.18a1,1,0,0,1,1-.94,2.38,2.38,0,0,1,1.77,1.11L197.5,258a3.92,3.92,0,0,0-3.09-1.49,2.66,2.66,0,0,0-2.86,2.56c0,3,4,2.56,4,4.18a1,1,0,0,1-1.14,1,2.56,2.56,0,0,1-2-1.09Zm-3.47,1.23h1.79v-8.85H187.7Zm-7.11-3.83,1.22-3.33,1.21,3.33Zm-3.31,3.83h1.91l.85-2.3h3.54l.84,2.3h1.91L183,256.73h-2.35Zm-4.11-1.43a3,3,0,0,1,0-6,2.77,2.77,0,0,1,2.32,1.21l1.41-1.1a4.7,4.7,0,1,0-4.61,7.48l-1.11,1.86h1.59l1.1-1.83a4.39,4.39,0,0,0,3-1.76l-1.41-1.09a2.78,2.78,0,0,1-2.32,1.22m-14.47,1.43h1.8v-6.4l3.95,6.4h2.3v-8.85H165v6.39l-4-6.39h-2.3Zm-7.1-3.83,1.22-3.33,1.21,3.33Zm-3.31,3.83h1.91l.85-2.3h3.53l.85,2.3h1.91L154,256.73h-2.35Zm-4.79-7.36a1.15,1.15,0,1,1,0,2.29h-1v-2.29Zm-2.81,7.36h1.8V262h.92l2.37,3.58h2.11l-2.77-3.92a2.38,2.38,0,0,0,1.43-2.29c0-1.64-1.2-2.64-3.15-2.64h-2.71Zm-6.73,0h1.79v-3.77h2.86v-1.49h-2.86v-2.1h3.36v-1.49H134Zm-10.53,0h5.16v-1.5h-3.36v-2.27h2.85v-1.49h-2.85v-2.1h3.36v-1.49h-5.16Zm-4-3.32a1.79,1.79,0,1,1-3.57,0v-5.53H114v5.38a3.59,3.59,0,1,0,7.17,0v-5.38h-1.8Zm-11.62,1.89a3,3,0,1,1,2.84-3,2.85,2.85,0,0,1-2.84,3m3.47,1.2-.53-.51a4.68,4.68,0,0,0,1.75-3.69,4.7,4.7,0,1,0-4.69,4.68,4.72,4.72,0,0,0,1.21-.15l1,.93a4.17,4.17,0,0,0,2.77,1.17,2.38,2.38,0,0,0,.93-.17v-1.52a1.74,1.74,0,0,1-.63.11,2.76,2.76,0,0,1-1.86-.85m-11.69.23h1.8v-8.85h-1.8Zm-6.73,0H98V264H94.63v-7.22H92.84Zm-5-3.87c.83,0,1.34.43,1.34,1.19s-.51,1.18-1.34,1.18h-1.1v-2.37Zm-.26-3.49a1,1,0,1,1,0,2h-.84v-2Zm-2.64,7.36H87.7c2,0,3.29-1,3.29-2.61a2.24,2.24,0,0,0-1.45-2.09,2,2,0,0,0,.95-1.75c0-1.49-1.13-2.4-3-2.4H84.91Zm-4-3.32a1.79,1.79,0,1,1-3.57,0v-5.53h-1.8v5.38a3.59,3.59,0,1,0,7.17,0v-5.38h-1.8Zm-9.75-4a1.15,1.15,0,1,1,0,2.29h-1.2v-2.29Zm-3,7.36h1.8V262h1.12c2,0,3.13-1,3.13-2.63s-1.18-2.64-3.13-2.64H68.14Zm-7.24,0h5.16v-1.5H62.7v-2.27h2.85v-1.49H62.7v-2.1h3.36v-1.49H60.9ZM64.28,256l1.64-1.7H64.07L62.64,256Zm-8.9,2.25a1.15,1.15,0,1,1,0,2.29h-1v-2.29Zm-2.81,7.36h1.8V262h.92l2.36,3.58h2.11L57,261.66a2.36,2.36,0,0,0,1.43-2.29c0-1.64-1.2-2.64-3.14-2.64H52.57Z"/><path class="cls-5" d="M201,235.82c0,1.64.81,2.4,2.26,2.4a2.75,2.75,0,0,0,1.12-.19v-1a2.47,2.47,0,0,1-1,.16c-.78,0-1.3-.29-1.3-1.35v-3.46h2.26v-1h-2.26v-1.69H201v1.69h-1.23v1H201Zm-6.77.52c0-.58.4-1,1.29-1.15l1.93-.34v1.33a2.28,2.28,0,0,1-2,1.15c-.76,0-1.21-.42-1.21-1m1,1.93a2.76,2.76,0,0,0,2.19-1v.84h1.09v-4.53a2.39,2.39,0,0,0-2.63-2.49,3.08,3.08,0,0,0-2.62,1.3l.82.65a2.1,2.1,0,0,1,1.76-.93,1.42,1.42,0,0,1,1.58,1.47V234l-2.2.38c-1.38.24-2.13,1-2.13,2a1.91,1.91,0,0,0,2.14,1.89m-6.69-2.45c0,1.64.81,2.4,2.26,2.4A2.78,2.78,0,0,0,192,238v-1a2.47,2.47,0,0,1-1,.16c-.78,0-1.3-.29-1.3-1.35v-3.46H192v-1h-2.26v-1.69h-1.11v1.69h-1.23v1h1.23Zm-7.17,2.26h4.86V237h-3.65v-3.18h3.13v-1.06h-3.13v-3h3.65V228.7h-4.86Zm3-10.18,1.66-1.81h-1.32l-1.46,1.81Zm-6.23,4.39,1.33-3.59h-1.25l-1.1,3.59Zm-3.77,5.79h1.1V228h-1.1Zm-8.36,0h1.1v-4.64a2.06,2.06,0,0,1,2.45-1.05v-1.12a1.82,1.82,0,0,0-.55-.08,2.35,2.35,0,0,0-1.9,1v-.84h-1.1Zm-6.4-1.74c0-.58.4-1,1.29-1.15l1.93-.34v1.33a2.27,2.27,0,0,1-2,1.15c-.77,0-1.22-.42-1.22-1m1,1.93a2.74,2.74,0,0,0,2.18-1v.84H164v-4.53a2.39,2.39,0,0,0-2.64-2.49,3.09,3.09,0,0,0-2.62,1.3l.83.65a2.09,2.09,0,0,1,1.75-.93,1.42,1.42,0,0,1,1.58,1.47V234l-2.2.38c-1.38.24-2.13,1-2.13,2a1.92,1.92,0,0,0,2.15,1.89m-6.77-6.14a2.59,2.59,0,0,1,0,5.15,2.54,2.54,0,0,1-2.19-1.26v-2.63a2.53,2.53,0,0,1,2.19-1.26m-3.52,9.56h1.1l.23-4.41a2.93,2.93,0,0,0,2.32,1.07,3.66,3.66,0,0,0,0-7.29,2.93,2.93,0,0,0-2.32,1.07v-.8h-1.1ZM142.64,232a1.8,1.8,0,0,1,1.82,1.83h-3.9a2.05,2.05,0,0,1,2.08-1.83M145.7,237l-.81-.66a2.44,2.44,0,0,1-4.41-1.59h5a3.7,3.7,0,0,0,.08-.73,2.79,2.79,0,0,0-2.92-2.93,3.33,3.33,0,0,0-3.28,3.64,3.49,3.49,0,0,0,3.55,3.65A3.33,3.33,0,0,0,145.7,237m-2.48-6.72,1.52-2.22h-1.25l-1.34,2.22Zm-7.92,7.83h1.1v-4.64a2,2,0,0,1,1.81-1.14,2.13,2.13,0,0,1,.65.09v-1.12a1.89,1.89,0,0,0-.56-.08,2.35,2.35,0,0,0-1.9,1v-.84h-1.1Zm-7.75-6.75,2.55,6.75h1.44l2.55-6.75H132.9l-2.08,5.56-2.08-5.56Zm-2.31,6.75h1.09v-6.75h-1.09Zm.55-8.51a.8.8,0,0,0,0-1.59.8.8,0,0,0,0,1.59m-3.85,8.51H123V228h-1.1ZM117.29,232a1.82,1.82,0,0,1,1.82,1.83h-3.9a2,2,0,0,1,2.08-1.83m3.06,4.95-.81-.66a2.44,2.44,0,0,1-4.41-1.59h5a3.7,3.7,0,0,0,.08-.73,2.79,2.79,0,0,0-2.92-2.93c-2,0-3.28,1.59-3.28,3.64a3.48,3.48,0,0,0,3.55,3.65,3.36,3.36,0,0,0,2.79-1.38m-2.48-6.72,1.51-2.22h-1.24l-1.34,2.22Zm-11.08,4.45a2.37,2.37,0,0,1,2.31-2.57,2.51,2.51,0,0,1,2.18,1.25V236a2.52,2.52,0,0,1-2.18,1.25,2.38,2.38,0,0,1-2.31-2.58m-1.17,0a3.42,3.42,0,0,0,3.35,3.65,2.91,2.91,0,0,0,2.31-1.07v.8h1.1V228h-1.1v4.1a2.91,2.91,0,0,0-2.31-1.07,3.41,3.41,0,0,0-3.35,3.64m-6.1,3.38h1.1V228h-1.1ZM94.87,232a1.81,1.81,0,0,1,1.82,1.83h-3.9A2,2,0,0,1,94.87,232M97.93,237l-.81-.66a2.44,2.44,0,0,1-4.41-1.59h5a3.7,3.7,0,0,0,.08-.73,2.79,2.79,0,0,0-2.92-2.93c-2,0-3.28,1.59-3.28,3.64a3.48,3.48,0,0,0,3.55,3.65A3.33,3.33,0,0,0,97.93,237m-9.08,1.11H90v-6.75h-1.1Zm.56-8.51a.8.8,0,1,0-.78-.8.79.79,0,0,0,.78.8m-4.67,7.71a2.58,2.58,0,0,1,0-5.15,2.22,2.22,0,0,1,1.87,1l.87-.68a3.34,3.34,0,0,0-2.74-1.38,3.65,3.65,0,0,0,0,7.29A3.29,3.29,0,0,0,87.47,237l-.87-.68a2.22,2.22,0,0,1-1.86,1m-6.29.8h1.09v-6.75H78.45Zm.55-8.51A.8.8,0,0,0,79,228a.8.8,0,0,0,0,1.59m-6.37,1.76v1h1.23v5.72H75v-5.72h2.26v-1H75v-.86c0-.89.49-1.41,1.23-1.41a1.48,1.48,0,0,1,.92.31l.49-1a2.73,2.73,0,0,0-1.44-.39,2.27,2.27,0,0,0-2.31,2.47v.83Zm-5.14,0v1h1.23v5.72h1.11v-5.72h2.26v-1H69.83v-.86c0-.89.49-1.41,1.23-1.41a1.43,1.43,0,0,1,.91.31l.49-1A2.72,2.72,0,0,0,71,228a2.27,2.27,0,0,0-2.31,2.47v.83Zm-4.2,5.95a2.59,2.59,0,1,1,2.35-2.58,2.45,2.45,0,0,1-2.35,2.58m0-6.22a3.65,3.65,0,1,0,3.53,3.64,3.51,3.51,0,0,0-3.53-3.64m-9.63,7h1.1V228h-1.1ZM49,232a1.82,1.82,0,0,1,1.82,1.83h-3.9A2,2,0,0,1,49,232M52.06,237l-.81-.66a2.44,2.44,0,0,1-4.41-1.59h5a3.7,3.7,0,0,0,.08-.73A2.79,2.79,0,0,0,49,231.06c-2,0-3.28,1.59-3.28,3.64a3.48,3.48,0,0,0,3.55,3.65A3.36,3.36,0,0,0,52.06,237m-11-4.84a2.59,2.59,0,0,1,0,5.15A2.55,2.55,0,0,1,38.89,236v-2.65a2.53,2.53,0,0,1,2.19-1.25m3.47,2.57a3.4,3.4,0,0,0-3.34-3.64,3,3,0,0,0-2.32,1.07V228H37.8v10.05h1.09v-.8a3,3,0,0,0,2.32,1.07,3.41,3.41,0,0,0,3.34-3.65M31.4,236.34c0-.58.4-1,1.29-1.15l1.93-.34v1.33a2.28,2.28,0,0,1-2,1.15c-.76,0-1.21-.42-1.21-1m1,1.93a2.74,2.74,0,0,0,2.19-1v.84h1.09v-4.53a2.39,2.39,0,0,0-2.63-2.49,3.08,3.08,0,0,0-2.62,1.3l.82.65a2.1,2.1,0,0,1,1.76-.93,1.42,1.42,0,0,1,1.58,1.47V234l-2.2.38c-1.38.24-2.13,1-2.13,2a1.91,1.91,0,0,0,2.14,1.89m-8.29-.19H29v-1.15H25.35V228.7H24.14Z"/><line class="cls-6" x1="24.22" y1="247.5" x2="204.9" y2="247.5"/><path class="cls-7" d="M114.26,23.34a90.09,90.09,0,1,1-90.09,90.09,90.1,90.1,0,0,1,90.09-90.09"/><path class="cls-8" d="M114.26,30.89a82.54,82.54,0,1,1-82.54,82.54,82.54,82.54,0,0,1,82.54-82.54"/><path class="cls-9" d="M114.26,62.54a50.89,50.89,0,1,0,50.89,50.89,50.88,50.88,0,0,0-50.89-50.89"/><path class="cls-8" d="M75,146.08c-.83-1-1.62-2-2.37-3.07,3.77-.86,7.84-1,11.48-2.26l1.41-.94c.79-.32,1.42-1.11,2.37-1.58a6.92,6.92,0,0,0,2.68-3.62.56.56,0,0,0-.16-.32,24.2,24.2,0,0,1-6.93,5.2c-3.31,1.74-6.94,1.42-10.4,1.89.15-.31.47-.31.78-.31,0-.47.32-.64.63-.95H75c.15,0,.15-.31.31-.31.32,0,.79-.16.63-.16-.47-.63-1.42.47-2.2,0,.31-.32.15-.79.47-1h.63a1.13,1.13,0,0,1,.31-.63c2.37-1.41,4.58-2.52,6.78-3.78-.47,0-.79.47-1.26.16.31,0,0-.48.31-.48,1.74-.47,3.16-1.41,4.89-2-.63,0-1.1.47-1.73,0,.31-.16.47-.48.94-.48V131c0-.15.16-.15.32-.15a.55.55,0,0,1-.32-.17c.16-.31.63-.15.95-.46-.16,0-.48,0-.48-.16a3.13,3.13,0,0,1,2-.95c-.15-.31-.63,0-.63-.31,0-.16.16-.16.32-.16h-.32c-.31-.16-.15-.48-.15-.63.94-1.11.94-2.52,1.41-3.78-.15,0-.31,0-.31-.16-1.58,1.73-4.1,2.36-6.46,3h-.79a3.16,3.16,0,0,1-2.68-.16,10.73,10.73,0,0,1-1.57-1.25,18.82,18.82,0,0,0-3.94-1.9,36.73,36.73,0,0,0-8.52-1.67c-.07-.38-.13-.77-.19-1.15.7-.15,1.39-.29,2.09-.49,2.68-.79,5.2-1.73,8-1.58a5.51,5.51,0,0,0-1.57,0,26,26,0,0,0-6.78,1,17.92,17.92,0,0,0-1.85.5c-.11-.79-.2-1.59-.27-2.39a6.78,6.78,0,0,1,1-.16c2.83-.47,5.51,0,8.35.32a40.6,40.6,0,0,1,6,1.1c.79,0,1,1.26,1.58,1.42.94.31,1.88,0,2.83.63,0-.32-.16-.63,0-.94.63-.64,1.42.15,2-.16,1.26-.8-1.1-2.21-1.73-3.31a.57.57,0,0,1,.15-.32c1.26,1.11,2.21,2.36,3.79,3.15.78.32,2.68.79,2.36-.15-.79-1.74-2.36-3.16-3.62-4.73v-.63c-.32,0-.32-.16-.48-.32v-.62c-.63-.32-.47-1-.79-1.42-.47-.8-.15-1.9-.47-2.85a17.21,17.21,0,0,1-.63-2.67c-.47-2.68-1.1-5-1.41-7.57-.32-3,1.73-5.36,3.14-8a13.51,13.51,0,0,1,4.42-5,13.74,13.74,0,0,1,3-5c1.26-1.54,3.14-2.33,4.87-3.15,12-5.43,27-4.32,38.78,0a7.32,7.32,0,0,1,3,2.52c.32.47.79,1.42.48,2-.32.79-.48,2-1.26,2.36a5.78,5.78,0,0,1-3.31.32,7.87,7.87,0,0,1-1.9-.32c2.37,1,4.58,2,6.15,4.26.16.31.79.47,1.42.47.16,0,.16.32.16.47-.32.32-.63.48-.48.94h.48c.79-.31.63-1.88,1.73-1.41a1.77,1.77,0,0,1,.63,2.36A16.49,16.49,0,0,1,141.78,93a1.32,1.32,0,0,0,0,1.1,4.93,4.93,0,0,1,.79,1.89c.47,1.11.63,2.37,1.1,3.47a22.12,22.12,0,0,1,1.1,7.09c0,1.26-.62,2.36-.15,3.63a13.07,13.07,0,0,0,1.73,3.31,25.34,25.34,0,0,1,1.74,2.52c.94,1.58,2.67,3.15,1.89,5-.47,1.11-2.21,1-3.31,1.58-.95.79-.16,2.05.31,2.84.79,1.41-.95,2.36-2,2.83.32.48.95.32,1.1.63.16.79.95,1.27.48,2-.63,1-2.52,1.42-1.58,2.84.63,1.1.23,2.33-.16,3.46a3.87,3.87,0,0,1-2.83,2.37,6.64,6.64,0,0,1-3,.16,2.2,2.2,0,0,0-.94-.32c-2.68-.31-5.36-1.1-8-1.1a8.85,8.85,0,0,0-2.2.63,15,15,0,0,0-5.34,7.62c-.5,2.45-.86,4.6-1.1,6.47-2.31.37-1.58.57-7.11.57s-16.47-2.48-23.28-6.76l.29-.28a45.31,45.31,0,0,1,7.06-6.83c.16-.16.16-.48.32-.63-.79.31-1.26.94-2,1.25-.16,0-.31-.15-.16-.31l1.89-1.42c0,.16-.15.16-.32.16s-.15-.16-.15-.31c-2-.32-3.62,1.1-5,2.36-.32.16-.63-.16-.79-.16-2.37.79-4.1,2.84-6.47,3.78v-.31a29.55,29.55,0,0,1-2.83,1.1,16.59,16.59,0,0,1-3.94.16c-1.25.13-2.5.35-3.75.6m-7.23-11.5a38,38,0,0,0,9.25-3c-3.53-2.71-7.87-3.9-12.13-5.09a50.44,50.44,0,0,0,2.88,8.06M63.23,115.3a1.61,1.61,0,0,0,.22-.23l-.24-.09Zm75.56-9.06c.63.16,1.57.16,1.57.47-.31,1.26-2.2,1.58-3.15,2.84h-.47c-.48.31-.32,1.1-.79,1.1a2.27,2.27,0,0,0-1.42.16,2.73,2.73,0,0,0,2.36,1,.7.7,0,0,1,.48.63.45.45,0,0,0,.31-.17c.16,0,.32,0,.32.17V113c-.47.62-1.26.31-1.89.47a7.15,7.15,0,0,0,3.62,0c1-.31,0-1.89.63-2.68-.31,0,0-.47-.31-.47a5.29,5.29,0,0,1,.94-1,1.12,1.12,0,0,0,.95-.48c0-.31-.63-.47-.47-.78.94-.63,1.73-1.58,1.42-2.52-.16-.48-1.42-.48-2.21-.79A5.19,5.19,0,0,0,138,105a13,13,0,0,0-2.37.63,10.7,10.7,0,0,0-3,1.57,21.68,21.68,0,0,1,3.47-.94,10.45,10.45,0,0,1,2.68,0"/><path class="cls-9" d="M66.61,78.2,57.39,71l1.55-2,9.22,7.24Zm7.19-8.3,1.88-1.48-4.14-5.27c-.32-.41-.6-.74-.83-1a10.05,10.05,0,0,0-.73-.73,13.48,13.48,0,0,0,1.22.64,4.66,4.66,0,0,0,.88.34l8.49,2.17,1.93-1.52-7.24-9.22-1.89,1.48,4.06,5.16c.31.4.59.73.82,1a10.21,10.21,0,0,0,.74.73q-.67-.37-1.2-.63a6.1,6.1,0,0,0-.89-.33l-8.3-2.16-2,1.61Zm19-11.75-7.86-9.71,2.62-.89,4.51,6.19c.08.13.24.37.45.72s.46.77.72,1.23c-.09-.5-.17-.95-.21-1.35s-.07-.72-.08-1l-.12-7.59,2.59-.88-.37,12.5Zm13.32-3.5L105.23,43l6.89-.52.16,2.11-4.38.33.18,2.41,4.38-.34.16,2.13-4.38.33.22,2.93,4.38-.34.16,2.13Zm14.65-1.74,1.66-1.31a2.17,2.17,0,0,0,.65,1.16,2.37,2.37,0,0,0,1.23.59,2.12,2.12,0,0,0,1.44-.16,1.34,1.34,0,0,0,.7-1c.1-.54-.36-1.18-1.38-1.93-.33-.23-.59-.43-.78-.58a6.45,6.45,0,0,1-1.83-1.91,3.07,3.07,0,0,1,1.29-4,4.6,4.6,0,0,1,3.1-.39,4,4,0,0,1,1.74.69,3.74,3.74,0,0,1,1.14,1.38L128,46.52a1.86,1.86,0,0,0-.55-.87,2,2,0,0,0-1-.43,1.84,1.84,0,0,0-1.25.15,1.2,1.2,0,0,0-.62.87c-.11.61.39,1.27,1.48,2a5.82,5.82,0,0,1,.5.34,6.34,6.34,0,0,1,1.91,1.89,3.07,3.07,0,0,1,.36,2,3.36,3.36,0,0,1-1.57,2.4,4.48,4.48,0,0,1-3.15.43,5.44,5.44,0,0,1-2.19-.86,3.18,3.18,0,0,1-1.18-1.57M143.7,51.2l-3.95,8.74-2.29-1,3.95-8.74L138.8,49l.88-2,7.51,3.4-.88,1.94Zm4.94,14,6.79-9.55,2,1.45-6.79,9.55Zm13.9,13.51,1.92-5.93a2.79,2.79,0,0,0,2,.76,3.09,3.09,0,0,0,2-.8,3,3,0,0,0,1.19-2.44,5.14,5.14,0,0,0-1.47-3l-2.35-2.71L157,72.3l1.65,1.9,4.13-3.59-2.12,5.91Zm1.18-8.91,2.33-2,.24.28a3.83,3.83,0,0,1,1,1.73,1.4,1.4,0,0,1-.59,1.2,1.29,1.29,0,0,1-1.19.39,4,4,0,0,1-1.57-1.3Z"/><path class="cls-9" d="M63.78,164.74l8.12-8.46L73.71,158l-6.64,6.91L70,167.71l-1.48,1.54Zm13.75,2.65,4-3.36,2.06,1.34-4.81,2.86Zm13.72,9.55.2-4c0-.12,0-.32.09-.59s.11-.61.2-1c-.2.33-.4.62-.57.87a5.53,5.53,0,0,1-.36.51l-2.58,3Zm-8.59,1.34,8.53-9.2,2.66,1.08-.2,12.56L91,181.65l0-2.67-4.22-1.7-1.69,2Zm20.54,6.3-2.92-12.15,2.75.32,1.41,7.53c0,.15.06.44.1.85s.08.89.13,1.41c.12-.49.25-.93.38-1.3s.25-.69.35-.93l3.15-6.91,2.72.32-5.71,11.13Zm13.76.78-.9-11.68,6.89-.53.16,2.11-4.38.34.18,2.4,4.38-.34.16,2.13-4.38.33.22,2.93,4.39-.33.16,2.12Zm15-2-3.79-11.09,2.46-.84,7.12,4.77a7.08,7.08,0,0,1,.73.61c.28.28.59.61.92,1-.16-.31-.32-.62-.45-.93s-.29-.72-.45-1.2l-2.13-6.2,2.26-.78,3.8,11.09-2.32.79-7.3-4.84a6.15,6.15,0,0,1-.73-.61c-.28-.28-.59-.61-.93-1q.24.45.45.93c.14.31.29.72.46,1.21l2.17,6.34Zm18-7.5L144,165.8l2.17-1.27,5.93,10.11Zm15.53-11.64-5.91-2a2.86,2.86,0,0,0,.77-2,3.09,3.09,0,0,0-.78-2,3,3,0,0,0-2.43-1.2,5.08,5.08,0,0,0-3,1.44l-2.73,2.33,7.61,8.92,1.91-1.63L157.4,164l5.89,2.16Zm-8.9-1.24-2-2.34.29-.25a3.76,3.76,0,0,1,1.74-1,1.39,1.39,0,0,1,1.19.6,1.26,1.26,0,0,1,.38,1.19,4,4,0,0,1-1.31,1.56Z"/></svg>