<svg id="Calque_1" data-name="Calque 1" xmlns="http://www.w3.org/2000/svg" viewBox="0 0 260.94 137.81"><defs><style>.cls-1{fill:#000091;}.cls-2{fill:#e1000f;}</style></defs><path d="M92.2,83.33,96,86.24a10,10,0,0,1-8.17,3.91c-6.66,0-10.65-4.79-10.65-10.42s4-10.42,10.65-10.42A10,10,0,0,1,96,73.21l-3.8,2.92a5.21,5.21,0,0,0-4.44-2.23,5.83,5.83,0,0,0,.07,11.65,5.16,5.16,0,0,0,4.37-2.22"/><path d="M113.28,79.73a5.49,5.49,0,0,0-5.44-5.82,5.83,5.83,0,1,0,5.44,5.82m5.06,0a10.58,10.58,0,1,1-10.58-10.42,10.21,10.21,0,0,1,10.58,10.42"/><path d="M121.17,70.07H126V71.6a7.85,7.85,0,0,1,5.71-2.29c4.18,0,7.51,2.87,7.51,8.58v11.5h-4.9V78.08c0-2.56-1.46-4.17-3.84-4.17A5.12,5.12,0,0,0,126,76.78V89.39h-4.87Z"/><path d="M143.17,70.07H148V71.6a7.85,7.85,0,0,1,5.71-2.29c4.17,0,7.51,2.87,7.51,8.58v11.5h-4.91V78.08c0-2.56-1.45-4.17-3.83-4.17A5.11,5.11,0,0,0,148,76.78V89.39h-4.87Z"/><path d="M168.92,77.2h8.89a4,4,0,0,0-4.21-3.91,4.48,4.48,0,0,0-4.68,3.91m5.6,13c-6.86,0-10.73-4.79-10.73-10.42s3.6-10.42,9.92-10.42c5.37,0,8.89,3.6,8.89,8.66a13.17,13.17,0,0,1-.3,2.76H168.77c.46,3.6,2.68,5,5.71,5a6.18,6.18,0,0,0,5-2.29L183,86.24a10.23,10.23,0,0,1-8.43,3.91"/><path d="M199.89,83.33l3.79,2.91a10,10,0,0,1-8.16,3.91c-6.67,0-10.66-4.79-10.66-10.42s4-10.42,10.66-10.42a10,10,0,0,1,8.16,3.9l-3.79,2.92a5.23,5.23,0,0,0-4.45-2.23,5.83,5.83,0,0,0,.08,11.65,5.17,5.17,0,0,0,4.37-2.22"/><path d="M208.43,74.44h-3.6V70.07h3.6V65.25h4.9v4.82h5.91v4.37h-5.91v7.89c0,2.15,1.15,3,3.07,3a7.5,7.5,0,0,0,2.87-.42v4.26a9,9,0,0,1-3.71.61c-4.83,0-7.13-2.72-7.13-7.44Z"/><path d="M228.82,67l4-6.36h5.29L233.49,67ZM226,77.2h8.89a4,4,0,0,0-4.22-3.91A4.47,4.47,0,0,0,226,77.2m5.59,13c-6.86,0-10.73-4.79-10.73-10.42s3.61-10.42,9.93-10.42c5.36,0,8.89,3.6,8.89,8.66a12.46,12.46,0,0,1-.31,2.76H225.86c.46,3.6,2.69,5,5.71,5a6.21,6.21,0,0,0,5-2.29L240,86.24a10.23,10.23,0,0,1-8.43,3.91"/><path d="M92.34,51.87l3.79,2.91A10,10,0,0,1,88,58.69c-6.67,0-10.65-4.79-10.65-10.42S81.3,37.84,88,37.84a10,10,0,0,1,8.16,3.91l-3.79,2.92a5.2,5.2,0,0,0-4.45-2.23,5.51,5.51,0,0,0-5.52,5.83A5.5,5.5,0,0,0,88,54.09a5.17,5.17,0,0,0,4.37-2.22"/><path d="M105.56,54.63a5.42,5.42,0,0,0,4.79-2.57V49.34l-4.6.77c-2,.34-2.88,1.18-2.88,2.37s1,2.15,2.69,2.15m-7.51-1.92c0-2.91,2.26-5.09,6.39-5.78l5.91-1v-.5c0-2-1.54-3.33-3.76-3.33a5.24,5.24,0,0,0-4.37,2.3l-3.56-2.72a9.66,9.66,0,0,1,8.09-3.84c5.59,0,8.46,3.34,8.46,7.59V57.92h-4.86V56.05a7.75,7.75,0,0,1-5.79,2.45c-3.87,0-6.51-2.22-6.51-5.79"/><path d="M119.16,38.61H124v1.46a7.28,7.28,0,0,1,5.33-2.23A6.64,6.64,0,0,1,135.22,41a7.76,7.76,0,0,1,6.47-3.15c4,0,7.13,2.76,7.13,8.21V57.92h-4.9V46.24c0-2.34-1.27-3.8-3.45-3.8s-3.26,1.46-4,2.76a5.77,5.77,0,0,1,0,.85V57.92h-4.9V46.24c0-2.34-1.27-3.8-3.45-3.8s-3.37,1.65-4.1,2.88v12.6h-4.87Z"/><path d="M157.64,45.24v6a6.24,6.24,0,0,0,5.32,2.8c3.3,0,5.44-2.45,5.44-5.82s-2.14-5.83-5.44-5.83a6.19,6.19,0,0,0-5.32,2.8m-4.87-6.63h4.87v1.57a8,8,0,0,1,6-2.34c6.13,0,9.81,4.79,9.81,10.43s-3.68,10.42-9.81,10.42a8,8,0,0,1-6-2.34v9.7h-4.87Z"/><path d="M189.67,38.61h4.91V49.34c0,5.79-3.37,9.35-9.05,9.35s-9-3.56-9-9.35V38.61h4.9v11c0,2.8,1.46,4.52,4.14,4.52s4.1-1.72,4.1-4.52Z"/><path d="M200.4,52.21a5.72,5.72,0,0,0,4.45,2.57,2.08,2.08,0,0,0,2.37-2.07c0-3.37-9.23-2.1-9.23-8.89,0-3.41,2.87-6,6.9-6a8.86,8.86,0,0,1,7,3.3L208.68,44a5.09,5.09,0,0,0-3.76-2.23c-1.53,0-2.26.85-2.26,1.84,0,3.3,9.24,2.15,9.24,8.82-.08,4.06-3.34,6.28-7,6.28a9.61,9.61,0,0,1-7.74-3.56Z"/><path class="cls-1" d="M79.5,99h2.33c1.9,0,2.88.83,2.88,2.21a2.39,2.39,0,0,1-1.34,2.11,2.06,2.06,0,0,1,1.14,1.84c0,1.73-1.44,2.9-3.52,2.9h-3.1Zm.93,5.1L80,106.57h1.09a1.38,1.38,0,0,0,1.53-1.32,1.06,1.06,0,0,0-1.19-1.12Zm.64-3.57-.37,2h.85a1.14,1.14,0,0,0,1.23-1.12c0-.59-.37-.92-1-.92Z"/><path class="cls-1" d="M85.5,106.54c0-1,.7-1.88,2.29-2.15L90,104l0-.14a.89.89,0,0,0-1-1.12,2,2,0,0,0-1.51.79l-1.17-1a3.63,3.63,0,0,1,2.79-1.25c2,0,2.78,1.23,2.47,2.94l-.69,3.84H89.24l.09-.49a2.43,2.43,0,0,1-1.77.69C86.38,108.29,85.5,107.69,85.5,106.54ZM88,107a2,2,0,0,0,1.56-.74l.19-1-1.62.29c-.69.11-1,.46-1,.85S87.45,107,88,107Z"/><path class="cls-1" d="M93.83,101.57h1.64l-.12.68a2.25,2.25,0,0,1,1.78-.81,1.42,1.42,0,0,1,.57.09l-.29,1.62a1.85,1.85,0,0,0-.62-.09,2.29,2.29,0,0,0-1.76,1l-.71,4H92.67Z"/><path class="cls-1" d="M101.21,104l-.29,1.59H97.54l.27-1.59Z"/><path class="cls-1" d="M103.38,98.38H105l-1.72,9.71h-1.65Z"/><path class="cls-1" d="M105.28,105.22a3.68,3.68,0,0,1,3.61-3.91,2.59,2.59,0,0,1,2.81,2.55,3.72,3.72,0,0,1-.27,1.31H107v0a1.46,1.46,0,0,0,1.62,1.66,2.23,2.23,0,0,0,1.76-.86l1.08,1.07a3.88,3.88,0,0,1-3,1.26A3,3,0,0,1,105.28,105.22Zm1.89-1.27,2.91,0a1.11,1.11,0,0,0-1.18-1.33A1.83,1.83,0,0,0,107.17,104Z"/><path class="cls-1" d="M115.89,104l-.29,1.59h-3.38l.27-1.59Z"/><path class="cls-1" d="M118.31,99h2.63c2.84,0,4.78,1.53,4.78,4.13a5,5,0,0,1-5.35,4.93H116.7Zm1.54,1.67-1,5.72h1.53a3.15,3.15,0,0,0,3.42-3.17c0-1.55-1-2.55-2.85-2.55Z"/><path class="cls-1" d="M131.63,101.57h1.67l-.66,3.71c-.35,2-1.38,3.07-3.27,3.07s-3-1.17-2.64-3.27l.62-3.51H129l-.66,3.7c-.17,1,.24,1.53,1.16,1.53s1.3-.53,1.47-1.53Z"/><path class="cls-1" d="M140.5,102.6l-1.39,1.1a1.62,1.62,0,0,0-1.44-.84,2.17,2.17,0,0,0-2,2.36,1.46,1.46,0,0,0,1.51,1.58,1.94,1.94,0,0,0,1.5-.7l1.11,1.14a3.56,3.56,0,0,1-2.63,1.11,3,3,0,0,1-3.23-3.13,3.85,3.85,0,0,1,3.89-3.91A3.05,3.05,0,0,1,140.5,102.6Z"/><path class="cls-1" d="M68.91,45.77h0V44.69a19.23,19.23,0,1,0,0,38.45V81.21a17.29,17.29,0,0,1-1.61-34.5v7.74a9.61,9.61,0,0,0,1.61,19.08v-1a8.65,8.65,0,1,1,0-17.29v-.33h0Z"/><path class="cls-2" d="M68.91,29.33V25.47a38.45,38.45,0,0,0,0,76.9V98.5a34.58,34.58,0,0,1-2.43-69.07v5.76a28.83,28.83,0,0,0,2.43,57.56V89.86h0V81.19h-.43a18.85,18.85,0,0,1-2-.17v8.72A25.94,25.94,0,0,1,68.91,38v-2.9h0V29.33Z"/><path class="cls-1" d="M68.91,20.69V15.86a48.06,48.06,0,0,0,0,96.12v-4.83h0V98.5c-1.08,0-2.16,0-3.22-.15V107a43.23,43.23,0,0,1,3.24-86.33Z"/></svg>