<svg id="Calque_1" data-name="Calque 1" xmlns="http://www.w3.org/2000/svg" viewBox="0 0 260.94 137.81"><defs><style>.cls-1{fill:#000091;}.cls-2{fill:#e1000f;}</style></defs><path d="M92.2,83.33,96,86.24a10,10,0,0,1-8.17,3.91c-6.66,0-10.65-4.79-10.65-10.42s4-10.42,10.65-10.42A10,10,0,0,1,96,73.21l-3.8,2.92a5.21,5.21,0,0,0-4.44-2.23,5.83,5.83,0,0,0,.07,11.65,5.16,5.16,0,0,0,4.37-2.22"/><path d="M113.28,79.73a5.49,5.49,0,0,0-5.44-5.82,5.83,5.83,0,1,0,5.44,5.82m5.06,0a10.58,10.58,0,1,1-10.58-10.42,10.21,10.21,0,0,1,10.58,10.42"/><path d="M121.17,70.07H126V71.6a7.85,7.85,0,0,1,5.71-2.29c4.18,0,7.51,2.87,7.51,8.58v11.5h-4.9V78.08c0-2.56-1.46-4.17-3.84-4.17A5.12,5.12,0,0,0,126,76.78V89.39h-4.87Z"/><path d="M143.17,70.07H148V71.6a7.85,7.85,0,0,1,5.71-2.29c4.17,0,7.51,2.87,7.51,8.58v11.5h-4.91V78.08c0-2.56-1.45-4.17-3.83-4.17A5.11,5.11,0,0,0,148,76.78V89.39h-4.87Z"/><path d="M168.92,77.2h8.89a4,4,0,0,0-4.21-3.91,4.48,4.48,0,0,0-4.68,3.91m5.6,13c-6.86,0-10.73-4.79-10.73-10.42s3.6-10.42,9.92-10.42c5.37,0,8.89,3.6,8.89,8.66a13.17,13.17,0,0,1-.3,2.76H168.77c.46,3.6,2.68,5,5.71,5a6.18,6.18,0,0,0,5-2.29L183,86.24a10.23,10.23,0,0,1-8.43,3.91"/><path d="M199.89,83.33l3.79,2.91a10,10,0,0,1-8.16,3.91c-6.67,0-10.66-4.79-10.66-10.42s4-10.42,10.66-10.42a10,10,0,0,1,8.16,3.9l-3.79,2.92a5.23,5.23,0,0,0-4.45-2.23,5.83,5.83,0,0,0,.08,11.65,5.17,5.17,0,0,0,4.37-2.22"/><path d="M208.43,74.44h-3.6V70.07h3.6V65.25h4.9v4.82h5.91v4.37h-5.91v7.89c0,2.15,1.15,3,3.07,3a7.5,7.5,0,0,0,2.87-.42v4.26a9,9,0,0,1-3.71.61c-4.83,0-7.13-2.72-7.13-7.44Z"/><path d="M228.82,67l4-6.36h5.29L233.49,67ZM226,77.2h8.89a4,4,0,0,0-4.22-3.91A4.47,4.47,0,0,0,226,77.2m5.59,13c-6.86,0-10.73-4.79-10.73-10.42s3.61-10.42,9.93-10.42c5.36,0,8.89,3.6,8.89,8.66a12.46,12.46,0,0,1-.31,2.76H225.86c.46,3.6,2.69,5,5.71,5a6.21,6.21,0,0,0,5-2.29L240,86.24a10.23,10.23,0,0,1-8.43,3.91"/><path d="M92.34,51.87l3.79,2.91A10,10,0,0,1,88,58.69c-6.67,0-10.65-4.79-10.65-10.42S81.3,37.84,88,37.84a10,10,0,0,1,8.16,3.91l-3.79,2.92a5.2,5.2,0,0,0-4.45-2.23,5.51,5.51,0,0,0-5.52,5.83A5.5,5.5,0,0,0,88,54.09a5.17,5.17,0,0,0,4.37-2.22"/><path d="M105.56,54.63a5.42,5.42,0,0,0,4.79-2.57V49.34l-4.6.77c-2,.34-2.88,1.18-2.88,2.37s1,2.15,2.69,2.15m-7.51-1.92c0-2.91,2.26-5.09,6.39-5.78l5.91-1v-.5c0-2-1.54-3.33-3.76-3.33a5.24,5.24,0,0,0-4.37,2.3l-3.56-2.72a9.66,9.66,0,0,1,8.09-3.84c5.59,0,8.46,3.34,8.46,7.59V57.92h-4.86V56.05a7.75,7.75,0,0,1-5.79,2.45c-3.87,0-6.51-2.22-6.51-5.79"/><path d="M119.16,38.61H124v1.46a7.28,7.28,0,0,1,5.33-2.23A6.64,6.64,0,0,1,135.22,41a7.76,7.76,0,0,1,6.47-3.15c4,0,7.13,2.76,7.13,8.21V57.92h-4.9V46.24c0-2.34-1.27-3.8-3.45-3.8s-3.26,1.46-4,2.76a5.77,5.77,0,0,1,0,.85V57.92h-4.9V46.24c0-2.34-1.27-3.8-3.45-3.8s-3.37,1.65-4.1,2.88v12.6h-4.87Z"/><path d="M157.64,45.24v6a6.24,6.24,0,0,0,5.32,2.8c3.3,0,5.44-2.45,5.44-5.82s-2.14-5.83-5.44-5.83a6.19,6.19,0,0,0-5.32,2.8m-4.87-6.63h4.87v1.57a8,8,0,0,1,6-2.34c6.13,0,9.81,4.79,9.81,10.43s-3.68,10.42-9.81,10.42a8,8,0,0,1-6-2.34v9.7h-4.87Z"/><path d="M189.67,38.61h4.91V49.34c0,5.79-3.37,9.35-9.05,9.35s-9-3.56-9-9.35V38.61h4.9v11c0,2.8,1.46,4.52,4.14,4.52s4.1-1.72,4.1-4.52Z"/><path d="M200.4,52.21a5.72,5.72,0,0,0,4.45,2.57,2.08,2.08,0,0,0,2.37-2.07c0-3.37-9.23-2.1-9.23-8.89,0-3.41,2.87-6,6.9-6a8.86,8.86,0,0,1,7,3.3L208.68,44a5.09,5.09,0,0,0-3.76-2.23c-1.53,0-2.26.85-2.26,1.84,0,3.3,9.24,2.15,9.24,8.82-.08,4.06-3.34,6.28-7,6.28a9.61,9.61,0,0,1-7.74-3.56Z"/><path class="cls-1" d="M86.71,100.78l-1.58,1a2.55,2.55,0,0,0-2.21-1.33A3.23,3.23,0,0,0,79.77,104a2.39,2.39,0,0,0,2.41,2.64,3.19,3.19,0,0,0,2.36-1.14l1.29,1.18a4.84,4.84,0,0,1-3.77,1.69,4,4,0,0,1-4.21-4.22A5.17,5.17,0,0,1,83,98.77,4.22,4.22,0,0,1,86.71,100.78Z"/><path class="cls-1" d="M86.73,106.54c0-1,.7-1.88,2.29-2.15l2.16-.37,0-.15a.89.89,0,0,0-1-1.12,2,2,0,0,0-1.51.79l-1.17-1a3.63,3.63,0,0,1,2.79-1.25c2,0,2.78,1.23,2.47,2.94l-.68,3.85H90.47l.09-.5a2.43,2.43,0,0,1-1.77.69C87.61,108.29,86.73,107.69,86.73,106.54Zm2.5.44a2,2,0,0,0,1.56-.74l.19-1-1.62.29c-.69.12-1,.46-1,.85S88.68,107,89.23,107Z"/><path class="cls-1" d="M95.61,98.38h1.66l-1.72,9.72H93.9Z"/><path class="cls-1" d="M98.58,101.57h1.65l-1.16,6.53H97.43Zm.13-2.22a1.07,1.07,0,1,1,1.08,1.08A1.09,1.09,0,0,1,98.71,99.35Z"/><path class="cls-1" d="M101.34,107.57a1.29,1.29,0,0,1-.29-.77,1.66,1.66,0,0,1,1-1.45,2,2,0,0,1-.66-1.56,2.51,2.51,0,0,1,2.76-2.48,3.09,3.09,0,0,1,1.33.26H108l-.25,1.4h-1.1a2.06,2.06,0,0,1,0,.44,2.53,2.53,0,0,1-2.75,2.51,3.37,3.37,0,0,1-.82-.09c-.28.17-.43.34-.43.53s.13.31.36.31h1.31c1.7,0,2.49.84,2.49,2,0,1.44-1.27,2.64-3.66,2.64-2,0-3-.77-3-2A2,2,0,0,1,101.34,107.57Zm1.89,2.44c1.37,0,1.89-.53,1.89-1.14s-.24-.79-1-.79h-1.72a1.14,1.14,0,0,0-.7,1C101.74,109.65,102.17,110,103.23,110Zm.93-7.47a1.18,1.18,0,0,0-1.23,1.23.88.88,0,0,0,1,.91,1.2,1.2,0,0,0,1.25-1.24A.89.89,0,0,0,104.16,102.54Z"/><path class="cls-1" d="M109.13,101.57h1.64l-.08.48a2.7,2.7,0,0,1,1.84-.74c1.47,0,2.41,1,2.07,2.9l-.67,3.89h-1.66l.68-3.83c.15-.86-.21-1.41-1-1.41a2,2,0,0,0-1.58,1h0l-.75,4.28H108Z"/><path class="cls-1" d="M115.89,111.33a2.45,2.45,0,0,1-1.31-.28l.24-1.4a2.15,2.15,0,0,0,.85.18c.53,0,.89-.23,1.25-.88l.51-.88-1.45-6.5h1.73l.92,4.4,2.52-4.4H123l-4.6,8C117.66,110.8,117,111.33,115.89,111.33Z"/><path class="cls-1" d="M68.91,45.77h0V44.69a19.23,19.23,0,1,0,0,38.45V81.21a17.29,17.29,0,0,1-1.61-34.5v7.74a9.61,9.61,0,0,0,1.61,19.08v-1a8.65,8.65,0,1,1,0-17.29v-.33h0Z"/><path class="cls-2" d="M68.91,29.33V25.47a38.45,38.45,0,0,0,0,76.9V98.5a34.58,34.58,0,0,1-2.43-69.07v5.76a28.83,28.83,0,0,0,2.43,57.56V89.86h0V81.19h-.43a18.85,18.85,0,0,1-2-.17v8.72A25.94,25.94,0,0,1,68.91,38v-2.9h0V29.33Z"/><path class="cls-1" d="M68.91,20.69V15.86a48.06,48.06,0,0,0,0,96.12v-4.83h0V98.5c-1.08,0-2.16,0-3.22-.15V107a43.23,43.23,0,0,1,3.24-86.33Z"/></svg>