<svg id="Calque_1" data-name="Calque 1" xmlns="http://www.w3.org/2000/svg" viewBox="0 0 260.94 137.81"><defs><style>.cls-1{fill:#000091;}.cls-2{fill:#e1000f;}</style></defs><path d="M92.2,82.33,96,85.25a10,10,0,0,1-8.17,3.91c-6.66,0-10.65-4.8-10.65-10.43s4-10.42,10.65-10.42A10,10,0,0,1,96,72.22l-3.8,2.91a5.2,5.2,0,0,0-4.44-2.22,5.83,5.83,0,0,0,.07,11.65,5.15,5.15,0,0,0,4.37-2.23"/><path d="M113.28,78.73a5.49,5.49,0,0,0-5.44-5.82,5.84,5.84,0,1,0,5.44,5.82m5.06,0a10.58,10.58,0,1,1-10.58-10.42,10.21,10.21,0,0,1,10.58,10.42"/><path d="M121.17,69.07H126v1.54a7.81,7.81,0,0,1,5.71-2.3c4.18,0,7.51,2.87,7.51,8.58v11.5h-4.9V77.08c0-2.56-1.46-4.17-3.84-4.17A5.12,5.12,0,0,0,126,75.78V88.39h-4.87Z"/><path d="M143.17,69.07H148v1.54a7.81,7.81,0,0,1,5.71-2.3c4.17,0,7.51,2.87,7.51,8.58v11.5h-4.91V77.08c0-2.56-1.45-4.17-3.83-4.17A5.11,5.11,0,0,0,148,75.78V88.39h-4.87Z"/><path d="M168.92,76.2h8.89a4,4,0,0,0-4.21-3.91,4.48,4.48,0,0,0-4.68,3.91m5.6,13c-6.86,0-10.73-4.79-10.73-10.42s3.6-10.42,9.92-10.42c5.37,0,8.89,3.6,8.89,8.66a13.09,13.09,0,0,1-.3,2.76H168.77c.46,3.6,2.68,5.06,5.71,5.06a6.18,6.18,0,0,0,5-2.3L183,85.25a10.25,10.25,0,0,1-8.43,3.9"/><path d="M199.89,82.33l3.79,2.92a10,10,0,0,1-8.16,3.91c-6.67,0-10.66-4.8-10.66-10.43s4-10.42,10.66-10.42a10,10,0,0,1,8.16,3.91l-3.79,2.91a5.22,5.22,0,0,0-4.45-2.22,5.83,5.83,0,0,0,.08,11.65,5.16,5.16,0,0,0,4.37-2.23"/><path d="M208.43,73.44h-3.6V69.07h3.6V64.25h4.9v4.82h5.91v4.37h-5.91v7.9c0,2.14,1.15,3,3.07,3a7.7,7.7,0,0,0,2.87-.42v4.25a9,9,0,0,1-3.71.61c-4.83,0-7.13-2.72-7.13-7.43Z"/><path d="M228.82,66l4-6.36h5.29L233.49,66ZM226,76.2h8.89a4,4,0,0,0-4.22-3.91A4.47,4.47,0,0,0,226,76.2m5.59,13c-6.86,0-10.73-4.79-10.73-10.42s3.61-10.42,9.93-10.42c5.36,0,8.89,3.6,8.89,8.66a12.38,12.38,0,0,1-.31,2.76H225.86c.46,3.6,2.69,5.06,5.71,5.06a6.22,6.22,0,0,0,5-2.3L240,85.25a10.25,10.25,0,0,1-8.43,3.9"/><path d="M92.34,50.87l3.79,2.92A10,10,0,0,1,88,57.69c-6.67,0-10.65-4.79-10.65-10.42S81.3,36.85,88,36.85a10,10,0,0,1,8.16,3.9l-3.79,2.92a5.22,5.22,0,0,0-4.45-2.22,5.5,5.5,0,0,0-5.52,5.82A5.5,5.5,0,0,0,88,53.09a5.17,5.17,0,0,0,4.37-2.22"/><path d="M105.56,53.63a5.4,5.4,0,0,0,4.79-2.57V48.34l-4.6.77c-2,.34-2.88,1.19-2.88,2.38s1,2.14,2.69,2.14m-7.51-1.91c0-2.92,2.26-5.1,6.39-5.79l5.91-1v-.5c0-2-1.54-3.33-3.76-3.33a5.24,5.24,0,0,0-4.37,2.3l-3.56-2.72a9.66,9.66,0,0,1,8.09-3.83c5.59,0,8.46,3.33,8.46,7.58v12.5h-4.86V55.05a7.75,7.75,0,0,1-5.79,2.45c-3.87,0-6.51-2.22-6.51-5.78"/><path d="M119.16,37.61H124v1.46a7.31,7.31,0,0,1,5.33-2.22A6.63,6.63,0,0,1,135.22,40a7.75,7.75,0,0,1,6.47-3.14c4,0,7.13,2.76,7.13,8.2V56.93h-4.9V45.24c0-2.34-1.27-3.79-3.45-3.79s-3.26,1.45-4,2.75a5.77,5.77,0,0,1,0,.85V56.93h-4.9V45.24c0-2.34-1.27-3.79-3.45-3.79s-3.37,1.64-4.1,2.87V56.93h-4.87Z"/><path d="M157.64,44.24V50.3A6.23,6.23,0,0,0,163,53.09c3.3,0,5.44-2.45,5.44-5.82s-2.14-5.82-5.44-5.82a6.18,6.18,0,0,0-5.32,2.79m-4.87-6.63h4.87v1.57a8,8,0,0,1,6-2.33c6.13,0,9.81,4.79,9.81,10.42s-3.68,10.42-9.81,10.42a8,8,0,0,1-6-2.34v9.7h-4.87Z"/><path d="M189.67,37.61h4.91V48.34c0,5.79-3.37,9.35-9.05,9.35s-9-3.56-9-9.35V37.61h4.9v11c0,2.8,1.46,4.52,4.14,4.52s4.1-1.72,4.1-4.52Z"/><path d="M200.4,51.22a5.75,5.75,0,0,0,4.45,2.57,2.09,2.09,0,0,0,2.37-2.07c0-3.38-9.23-2.11-9.23-8.9,0-3.41,2.87-6,6.9-6a8.88,8.88,0,0,1,7,3.29L208.68,43a5.09,5.09,0,0,0-3.76-2.23c-1.53,0-2.26.85-2.26,1.85,0,3.29,9.24,2.14,9.24,8.81-.08,4.06-3.34,6.28-7,6.28a9.61,9.61,0,0,1-7.74-3.56Z"/><path class="cls-1" d="M79.5,98h2.63c2.84,0,4.78,1.53,4.78,4.14a5,5,0,0,1-5.35,4.93H77.89ZM81,99.7l-1,5.73h1.53A3.15,3.15,0,0,0,85,102.26c0-1.56-1-2.56-2.85-2.56Z"/><path class="cls-1" d="M88.67,100.57h1.65l-.12.69a2.25,2.25,0,0,1,1.77-.82,1.59,1.59,0,0,1,.57.09l-.28,1.62a2.14,2.14,0,0,0-.62-.09,2.29,2.29,0,0,0-1.77,1l-.71,4H87.52Z"/><path class="cls-1" d="M92.53,105.55c0-1,.7-1.88,2.29-2.15L97,103l0-.14a.89.89,0,0,0-1-1.13,2,2,0,0,0-1.52.79l-1.16-1a3.57,3.57,0,0,1,2.78-1.26c2,0,2.79,1.23,2.48,2.94l-.69,3.85H96.27l.09-.49a2.39,2.39,0,0,1-1.77.69C93.41,107.3,92.53,106.7,92.53,105.55ZM95,106a2,2,0,0,0,1.57-.74l.18-1-1.62.28c-.69.12-1,.47-1,.86S94.49,106,95,106Z"/><path class="cls-1" d="M100.09,106.57a1.31,1.31,0,0,1-.28-.76,1.69,1.69,0,0,1,1-1.46,2,2,0,0,1-.66-1.55,2.53,2.53,0,0,1,2.76-2.49,3.17,3.17,0,0,1,1.34.26h2.44l-.24,1.4h-1.1a3.13,3.13,0,0,1,0,.44,2.53,2.53,0,0,1-2.75,2.51,3.06,3.06,0,0,1-.83-.09c-.27.17-.43.34-.43.53s.13.32.37.32h1.3c1.7,0,2.49.84,2.49,2,0,1.43-1.27,2.64-3.65,2.64-2,0-3-.78-3-2A2,2,0,0,1,100.09,106.57ZM102,109c1.37,0,1.89-.53,1.89-1.14s-.25-.79-1-.79H101.2a1.13,1.13,0,0,0-.7,1C100.5,108.66,100.92,109,102,109Zm.93-7.48a1.19,1.19,0,0,0-1.23,1.23.88.88,0,0,0,1,.91,1.19,1.19,0,0,0,1.24-1.23A.89.89,0,0,0,102.92,101.54Z"/><path class="cls-1" d="M112,100.57h1.67l-.66,3.72c-.35,2-1.38,3.07-3.27,3.07s-3-1.18-2.64-3.28l.62-3.51h1.66l-.66,3.71c-.17,1,.24,1.53,1.16,1.53s1.3-.54,1.47-1.53Z"/><path class="cls-1" d="M115.43,100.57h1.65l-1.16,6.53h-1.64Zm.13-2.21a1.07,1.07,0,1,1,2.14,0,1.07,1.07,0,1,1-2.14,0Z"/><path class="cls-1" d="M118.19,106.57a1.25,1.25,0,0,1-.28-.76,1.67,1.67,0,0,1,1-1.46,2,2,0,0,1-.66-1.55,2.53,2.53,0,0,1,2.76-2.49,3.09,3.09,0,0,1,1.33.26h2.45l-.24,1.4h-1.11a2.12,2.12,0,0,1,0,.44,2.52,2.52,0,0,1-2.74,2.51,3,3,0,0,1-.83-.09c-.27.17-.43.34-.43.53s.13.32.36.32h1.31c1.7,0,2.49.84,2.49,2,0,1.43-1.27,2.64-3.65,2.64-2,0-3.05-.78-3.05-2A2,2,0,0,1,118.19,106.57Zm1.89,2.45c1.38,0,1.89-.53,1.89-1.14s-.24-.79-1-.79h-1.73a1.13,1.13,0,0,0-.7,1C118.59,108.66,119,109,120.08,109Zm.94-7.48a1.18,1.18,0,0,0-1.23,1.23.88.88,0,0,0,1,.91,1.19,1.19,0,0,0,1.24-1.23A.89.89,0,0,0,121,101.54Z"/><path class="cls-1" d="M126,100.57h1.64l-.08.48a2.7,2.7,0,0,1,1.84-.74c1.47,0,2.41,1,2.08,2.9l-.68,3.89h-1.65l.67-3.82c.15-.87-.21-1.41-1-1.41a2,2,0,0,0-1.58,1h0l-.75,4.27h-1.65Z"/><path class="cls-1" d="M132.48,105.55c0-1,.7-1.88,2.29-2.15l2.17-.38,0-.14a.89.89,0,0,0-1-1.13,2,2,0,0,0-1.52.79l-1.16-1a3.57,3.57,0,0,1,2.78-1.26c2,0,2.79,1.23,2.48,2.94l-.69,3.85h-1.65l.09-.49a2.39,2.39,0,0,1-1.77.69C133.36,107.3,132.48,106.7,132.48,105.55Zm2.5.44a2,2,0,0,0,1.57-.74l.18-1-1.62.28c-.69.12-1,.47-1,.86S134.44,106,135,106Z"/><path class="cls-1" d="M140.81,100.57h1.64l-.07.48a2.68,2.68,0,0,1,1.84-.74c1.46,0,2.41,1,2.07,2.9l-.67,3.89H144l.67-3.82c.16-.87-.21-1.41-1-1.41a1.92,1.92,0,0,0-1.58,1h0l-.75,4.27h-1.64Z"/><path class="cls-1" d="M68.91,44.77h0V43.7a19.23,19.23,0,1,0,0,38.45V80.21a17.29,17.29,0,0,1-1.61-34.5v7.74a9.61,9.61,0,0,0,1.61,19.08v-1a8.65,8.65,0,0,1,0-17.3v-.33h0Z"/><path class="cls-2" d="M68.91,28.34V24.47a38.45,38.45,0,0,0,0,76.9V97.51a34.58,34.58,0,0,1-2.43-69.08v5.76a28.84,28.84,0,0,0,2.43,57.57v-2.9h0V80.19h-.43a16.52,16.52,0,0,1-2-.17v8.72A25.94,25.94,0,0,1,68.91,37v-2.9h0V28.34Z"/><path class="cls-1" d="M68.91,19.69V14.86a48.06,48.06,0,0,0,0,96.12v-4.83h0V97.51c-1.08,0-2.16-.06-3.22-.16V106a43.23,43.23,0,0,1,3.24-86.33Z"/></svg>