<svg id="Calque_1" data-name="Calque 1" xmlns="http://www.w3.org/2000/svg" viewBox="0 0 260.94 137.81"><defs><style>.cls-1{fill:#000091;}.cls-2{fill:#e1000f;}</style></defs><path d="M92.2,82.33,96,85.25a10,10,0,0,1-8.17,3.91c-6.66,0-10.65-4.8-10.65-10.43s4-10.42,10.65-10.42A10,10,0,0,1,96,72.22l-3.8,2.91a5.2,5.2,0,0,0-4.44-2.22,5.83,5.83,0,0,0,.07,11.65,5.15,5.15,0,0,0,4.37-2.23"/><path d="M113.28,78.73a5.49,5.49,0,0,0-5.44-5.82,5.84,5.84,0,1,0,5.44,5.82m5.06,0a10.58,10.58,0,1,1-10.58-10.42,10.21,10.21,0,0,1,10.58,10.42"/><path d="M121.17,69.07H126v1.54a7.81,7.81,0,0,1,5.71-2.3c4.18,0,7.51,2.87,7.51,8.58v11.5h-4.9V77.08c0-2.56-1.46-4.17-3.84-4.17A5.12,5.12,0,0,0,126,75.78V88.39h-4.87Z"/><path d="M143.17,69.07H148v1.54a7.81,7.81,0,0,1,5.71-2.3c4.17,0,7.51,2.87,7.51,8.58v11.5h-4.91V77.08c0-2.56-1.45-4.17-3.83-4.17A5.11,5.11,0,0,0,148,75.78V88.39h-4.87Z"/><path d="M168.92,76.2h8.89a4,4,0,0,0-4.21-3.91,4.48,4.48,0,0,0-4.68,3.91m5.6,13c-6.86,0-10.73-4.79-10.73-10.42s3.6-10.42,9.92-10.42c5.37,0,8.89,3.6,8.89,8.66a13.09,13.09,0,0,1-.3,2.76H168.77c.46,3.6,2.68,5.06,5.71,5.06a6.18,6.18,0,0,0,5-2.3L183,85.25a10.25,10.25,0,0,1-8.43,3.9"/><path d="M199.89,82.33l3.79,2.92a10,10,0,0,1-8.16,3.91c-6.67,0-10.66-4.8-10.66-10.43s4-10.42,10.66-10.42a10,10,0,0,1,8.16,3.91l-3.79,2.91a5.22,5.22,0,0,0-4.45-2.22,5.83,5.83,0,0,0,.08,11.65,5.16,5.16,0,0,0,4.37-2.23"/><path d="M208.43,73.44h-3.6V69.07h3.6V64.25h4.9v4.82h5.91v4.37h-5.91v7.9c0,2.14,1.15,3,3.07,3a7.7,7.7,0,0,0,2.87-.42v4.25a9,9,0,0,1-3.71.61c-4.83,0-7.13-2.72-7.13-7.43Z"/><path d="M228.82,66l4-6.36h5.29L233.49,66ZM226,76.2h8.89a4,4,0,0,0-4.22-3.91A4.47,4.47,0,0,0,226,76.2m5.59,13c-6.86,0-10.73-4.79-10.73-10.42s3.61-10.42,9.93-10.42c5.36,0,8.89,3.6,8.89,8.66a12.38,12.38,0,0,1-.31,2.76H225.86c.46,3.6,2.69,5.06,5.71,5.06a6.22,6.22,0,0,0,5-2.3L240,85.25a10.25,10.25,0,0,1-8.43,3.9"/><path d="M92.34,50.87l3.79,2.92A10,10,0,0,1,88,57.69c-6.67,0-10.65-4.79-10.65-10.42S81.3,36.85,88,36.85a10,10,0,0,1,8.16,3.9l-3.79,2.92a5.22,5.22,0,0,0-4.45-2.22,5.5,5.5,0,0,0-5.52,5.82A5.5,5.5,0,0,0,88,53.09a5.17,5.17,0,0,0,4.37-2.22"/><path d="M105.56,53.63a5.4,5.4,0,0,0,4.79-2.57V48.34l-4.6.77c-2,.34-2.88,1.19-2.88,2.38s1,2.14,2.69,2.14m-7.51-1.91c0-2.92,2.26-5.1,6.39-5.79l5.91-1v-.5c0-2-1.54-3.33-3.76-3.33a5.24,5.24,0,0,0-4.37,2.3l-3.56-2.72a9.66,9.66,0,0,1,8.09-3.83c5.59,0,8.46,3.33,8.46,7.58v12.5h-4.86V55.05a7.75,7.75,0,0,1-5.79,2.45c-3.87,0-6.51-2.22-6.51-5.78"/><path d="M119.16,37.61H124v1.46a7.31,7.31,0,0,1,5.33-2.22A6.63,6.63,0,0,1,135.22,40a7.75,7.75,0,0,1,6.47-3.14c4,0,7.13,2.76,7.13,8.2V56.93h-4.9V45.24c0-2.34-1.27-3.79-3.45-3.79s-3.26,1.45-4,2.75a5.77,5.77,0,0,1,0,.85V56.93h-4.9V45.24c0-2.34-1.27-3.79-3.45-3.79s-3.37,1.64-4.1,2.87V56.93h-4.87Z"/><path d="M157.64,44.24V50.3A6.23,6.23,0,0,0,163,53.09c3.3,0,5.44-2.45,5.44-5.82s-2.14-5.82-5.44-5.82a6.18,6.18,0,0,0-5.32,2.79m-4.87-6.63h4.87v1.57a8,8,0,0,1,6-2.33c6.13,0,9.81,4.79,9.81,10.42s-3.68,10.42-9.81,10.42a8,8,0,0,1-6-2.34v9.7h-4.87Z"/><path d="M189.67,37.61h4.91V48.34c0,5.79-3.37,9.35-9.05,9.35s-9-3.56-9-9.35V37.61h4.9v11c0,2.8,1.46,4.52,4.14,4.52s4.1-1.72,4.1-4.52Z"/><path d="M200.4,51.22a5.75,5.75,0,0,0,4.45,2.57,2.09,2.09,0,0,0,2.37-2.07c0-3.38-9.23-2.11-9.23-8.9,0-3.41,2.87-6,6.9-6a8.88,8.88,0,0,1,7,3.29L208.68,43a5.09,5.09,0,0,0-3.76-2.23c-1.53,0-2.26.85-2.26,1.85,0,3.29,9.24,2.14,9.24,8.81-.08,4.06-3.34,6.28-7,6.28a9.61,9.61,0,0,1-7.74-3.56Z"/><path class="cls-1" d="M79.5,98h2.21l1.43,3.7L85.88,98h2.39l-1.59,9.07H84.84L86,100.65,83.48,104H82.19l-1.32-3.36-1.14,6.47H77.89Z"/><path class="cls-1" d="M96,103.44a3.86,3.86,0,0,1-3.86,3.92,3,3,0,0,1-3.23-3.14,3.86,3.86,0,0,1,3.88-3.91A3,3,0,0,1,96,103.44Zm-1.74,0a1.48,1.48,0,0,0-1.54-1.58,2.19,2.19,0,0,0-2.07,2.36,1.47,1.47,0,0,0,1.53,1.58A2.19,2.19,0,0,0,94.29,103.44Z"/><path class="cls-1" d="M98,100.57H99.6l-.07.48a2.65,2.65,0,0,1,1.83-.74c1.47,0,2.41,1,2.08,2.9l-.68,3.89h-1.65l.67-3.82c.16-.87-.21-1.42-1-1.42a1.94,1.94,0,0,0-1.58,1v0l-.75,4.28H96.8Z"/><path class="cls-1" d="M105.85,102.05h-1.18l.27-1.48h1.18l.28-1.63h1.66l-.28,1.63h1.9l-.26,1.48h-1.9l-.46,2.56c-.15.83.16,1.11.82,1.11a2.91,2.91,0,0,0,.93-.15l-.24,1.44a2.89,2.89,0,0,1-1.18.22c-1.6,0-2.29-.92-2-2.76Z"/><path class="cls-1" d="M110,104.22a3.68,3.68,0,0,1,3.61-3.91,2.59,2.59,0,0,1,2.81,2.55,3.72,3.72,0,0,1-.27,1.31H111.7v0a1.46,1.46,0,0,0,1.62,1.66,2.23,2.23,0,0,0,1.76-.86l1.08,1.07a3.88,3.88,0,0,1-3,1.27A3,3,0,0,1,110,104.22Zm1.89-1.27,2.91,0a1.1,1.1,0,0,0-1.18-1.32A1.82,1.82,0,0,0,111.91,103Z"/><path class="cls-1" d="M118.35,100.57H120l-.12.69a2.27,2.27,0,0,1,1.78-.82,1.62,1.62,0,0,1,.57.09l-.28,1.62a2.06,2.06,0,0,0-2.39.94l-.71,4h-1.65Z"/><path class="cls-1" d="M122.37,104.22a3.68,3.68,0,0,1,3.62-3.91,2.59,2.59,0,0,1,2.81,2.55,3.72,3.72,0,0,1-.27,1.31h-4.47v0a1.46,1.46,0,0,0,1.62,1.66,2.23,2.23,0,0,0,1.76-.86l1.08,1.07a3.88,3.88,0,0,1-3,1.27A3,3,0,0,1,122.37,104.22Zm1.9-1.27,2.91,0a1.1,1.1,0,0,0-1.18-1.32A1.8,1.8,0,0,0,124.27,103Z"/><path class="cls-1" d="M129.46,105.54c0-1,.7-1.88,2.29-2.15l2.17-.37,0-.15a.88.88,0,0,0-1-1.12,2,2,0,0,0-1.52.79l-1.16-1a3.57,3.57,0,0,1,2.78-1.26c2,0,2.79,1.23,2.48,2.94l-.69,3.85H133.2l.09-.5a2.36,2.36,0,0,1-1.77.69C130.34,107.29,129.46,106.7,129.46,105.54Zm2.5.44a2,2,0,0,0,1.57-.73l.18-1-1.62.28c-.69.12-1,.47-1,.86S131.42,106,132,106Z"/><path class="cls-1" d="M141.94,100.57h1.67l-.66,3.72c-.35,1.95-1.38,3.07-3.27,3.07s-3-1.18-2.64-3.28l.62-3.51h1.66l-.66,3.7c-.17,1,.24,1.53,1.16,1.53s1.3-.53,1.47-1.53Z"/><path class="cls-1" d="M147.62,103l-.28,1.59H144l.27-1.59Z"/><path class="cls-1" d="M150,98h5.16l-.26,1.53h-3.33l-.37,2.15h2.81l-.26,1.53H151l-.68,3.86h-1.84Z"/><path class="cls-1" d="M154.84,105.54c0-1,.7-1.88,2.29-2.15l2.16-.37,0-.15a.89.89,0,0,0-1-1.12,2,2,0,0,0-1.51.79l-1.17-1a3.6,3.6,0,0,1,2.79-1.26c2,0,2.78,1.23,2.47,2.94l-.68,3.85h-1.65l.09-.5a2.39,2.39,0,0,1-1.77.69C155.72,107.29,154.84,106.7,154.84,105.54Zm2.5.44a2,2,0,0,0,1.56-.73l.19-1-1.62.28c-.69.12-1,.47-1,.86S156.79,106,157.34,106Z"/><path class="cls-1" d="M167.31,100.57H169l-.66,3.72c-.35,1.95-1.37,3.07-3.26,3.07s-3-1.18-2.64-3.28l.62-3.51h1.66l-.67,3.7c-.16,1,.25,1.53,1.17,1.53s1.3-.53,1.46-1.53Z"/><path class="cls-1" d="M171.28,97.38h1.65l-1.72,9.72h-1.64Z"/><path class="cls-1" d="M174.38,102.05h-1.17l.27-1.48h1.18l.28-1.63h1.66l-.28,1.63h1.9l-.26,1.48h-1.9l-.46,2.56c-.15.83.16,1.11.82,1.11a2.91,2.91,0,0,0,.93-.15l-.24,1.44a2.89,2.89,0,0,1-1.18.22c-1.6,0-2.3-.92-2-2.76Z"/><path class="cls-1" d="M181.91,103l-.28,1.59h-3.39l.28-1.59Z"/><path class="cls-1" d="M187.51,103.29l-.68,3.81H185l.69-3.93L183,98h2.09l1.77,3.47,3-3.47h2.29Z"/><path class="cls-1" d="M198.49,103.44a3.86,3.86,0,0,1-3.86,3.92,3,3,0,0,1-3.22-3.14,3.85,3.85,0,0,1,3.87-3.91A3,3,0,0,1,198.49,103.44Zm-1.73,0a1.48,1.48,0,0,0-1.55-1.58,2.2,2.2,0,0,0-2.07,2.36,1.47,1.47,0,0,0,1.53,1.58A2.19,2.19,0,0,0,196.76,103.44Z"/><path class="cls-1" d="M200.42,100.57h1.65l-.08.48a2.68,2.68,0,0,1,1.84-.74c1.46,0,2.41,1,2.07,2.9l-.67,3.89h-1.66l.67-3.82c.16-.87-.2-1.42-1-1.42a1.91,1.91,0,0,0-1.58,1v0l-.76,4.28h-1.64Z"/><path class="cls-1" d="M208.17,100.57h1.64l-.07.48a2.65,2.65,0,0,1,1.83-.74c1.47,0,2.41,1,2.08,2.9L213,107.1h-1.65l.67-3.82c.16-.87-.21-1.42-1-1.42a1.94,1.94,0,0,0-1.58,1v0l-.75,4.28H207Z"/><path class="cls-1" d="M214.84,104.22a3.68,3.68,0,0,1,3.61-3.91,2.58,2.58,0,0,1,2.81,2.55,3.72,3.72,0,0,1-.27,1.31h-4.47v0a1.46,1.46,0,0,0,1.62,1.66,2.23,2.23,0,0,0,1.76-.86l1.08,1.07a3.88,3.88,0,0,1-2.95,1.27A3,3,0,0,1,214.84,104.22Zm1.89-1.27,2.92,0a1.1,1.1,0,0,0-1.18-1.32A1.82,1.82,0,0,0,216.73,103Z"/><path class="cls-1" d="M68.91,44.77h0V43.7a19.23,19.23,0,1,0,0,38.45V80.21a17.29,17.29,0,0,1-1.61-34.5v7.74a9.61,9.61,0,0,0,1.61,19.08v-1a8.65,8.65,0,0,1,0-17.3v-.33h0Z"/><path class="cls-2" d="M68.91,28.34V24.47a38.45,38.45,0,0,0,0,76.9V97.51a34.58,34.58,0,0,1-2.43-69.08v5.76a28.84,28.84,0,0,0,2.43,57.57v-2.9h0V80.19h-.43a16.52,16.52,0,0,1-2-.17v8.72A25.94,25.94,0,0,1,68.91,37v-2.9h0V28.34Z"/><path class="cls-1" d="M68.91,19.69V14.86a48.06,48.06,0,0,0,0,96.12v-4.83h0V97.51c-1.08,0-2.16-.06-3.22-.16V106a43.23,43.23,0,0,1,3.24-86.33Z"/></svg>